<svg id="Layer_4" enable-background="new 0 0 24 24" height="512" viewBox="0 0 24 24" width="512" xmlns="http://www.w3.org/2000/svg"><g fill="#90caf9"><path d="m9.5 15.5h13.5c.552 0 1-.448 1-1v-5c0-.552-.448-1-1-1h-13.5c-.552 0-1 .448-1 1v5c0 .552.448 1 1 1z"/><path d="m9.5 24h13.5c.552 0 1-.448 1-1v-5c0-.552-.448-1-1-1h-13.5c-.552 0-1 .448-1 1v5c0 .552.448 1 1 1z"/><path d="m23 0h-13.5c-.552 0-1 .448-1 1v5c0 .552.448 1 1 1h13.5c.552 0 1-.448 1-1v-5c0-.552-.448-1-1-1z"/></g><path d="m16.25 8.5h-.75-6c-.552 0-1 .448-1 1v5c0 .552.448 1 1 1h6.75z" fill="#7db0d9"/><path d="m16.25 0h-.75-6c-.552 0-1 .448-1 1v5c0 .552.448 1 1 1h6.75z" fill="#7db0d9"/><path d="m16.25 17h-6.75c-.552 0-1 .448-1 1v5c0 .552.448 1 1 1h6.75z" fill="#7db0d9"/><path d="m0 18v5c0 .552.448 1 1 1h5c.552 0 1-.448 1-1v-5c0-.552-.448-1-1-1h-5c-.552 0-1 .448-1 1z" fill="#42a5f5"/><path d="m6 0h-5c-.552 0-1 .448-1 1v5c0 .552.448 1 1 1h5c.552 0 1-.448 1-1v-5c0-.552-.448-1-1-1z" fill="#42a5f5"/><path d="m6 8.5h-5c-.552 0-1 .448-1 1v5c0 .552.448 1 1 1h5c.552 0 1-.448 1-1v-5c0-.552-.448-1-1-1z" fill="#42a5f5"/><path d="m3.5 17h-2.5c-.552 0-1 .448-1 1v5c0 .552.448 1 1 1h2.5z" fill="#3990d5"/><path d="m3.5 0h-2.5c-.552 0-1 .448-1 1v5c0 .552.448 1 1 1h2.5z" fill="#3990d5"/><path d="m3.5 8.5h-2.5c-.552 0-1 .448-1 1v5c0 .552.448 1 1 1h2.5z" fill="#3990d5"/></svg>